/* XPM */
static const char * FreeFileSync_xpm[] = {
"32 32 390 2",
"  	c None",
". 	c #005927",
"+ 	c #046A38",
"@ 	c #1B7E4B",
"# 	c #318F5A",
"$ 	c #308F56",
"% 	c #258C4D",
"& 	c #128040",
"* 	c #036C36",
"= 	c #005A31",
"- 	c #005D28",
"; 	c #1F7D4E",
"> 	c #76B08F",
", 	c #ADD9B7",
"' 	c #B9EABB",
") 	c #A5E9A5",
"! 	c #8BE38A",
"~ 	c #6DDB6D",
"{ 	c #4DD04E",
"] 	c #2FC136",
"^ 	c #19A82F",
"/ 	c #078433",
"( 	c #005D33",
"_ 	c #036B35",
": 	c #6FAA8C",
"< 	c #D9EEDE",
"[ 	c #E0FDDD",
"} 	c #BDF3BB",
"| 	c #9BE89A",
"1 	c #7DE07C",
"2 	c #5FD85F",
"3 	c #44D143",
"4 	c #32D131",
"5 	c #2AD929",
"6 	c #25E422",
"7 	c #1CE31C",
"8 	c #0CB522",
"9 	c #017235",
"0 	c #0B6F3B",
"a 	c #9EC8B0",
"b 	c #EEFFEC",
"c 	c #CAF5C9",
"d 	c #A7EAA7",
"e 	c #8AE38A",
"f 	c #6EDB6E",
"g 	c #51D351",
"h 	c #39CF38",
"i 	c #2CD32B",
"j 	c #26DB26",
"k 	c #20E11F",
"l 	c #19E719",
"m 	c #13EF12",
"n 	c #0CFE08",
"o 	c #03DB0F",
"p 	c #007F31",
"q 	c #056B36",
"r 	c #98C7AA",
"s 	c #E3FEE0",
"t 	c #B8EEB7",
"u 	c #99E699",
"v 	c #7DDF7D",
"w 	c #60D760",
"x 	c #45D144",
"y 	c #33D530",
"z 	c #2ADA28",
"A 	c #23DC23",
"B 	c #1CE41C",
"C 	c #16F113",
"D 	c #0FF90C",
"E 	c #08FA07",
"F 	c #02FE02",
"G 	c #00FF00",
"H 	c #00E20A",
"I 	c #007434",
"J 	c #005E2F",
"K 	c #005E30",
"L 	c #005B2E",
"M 	c #005D2E",
"N 	c #6BAB87",
"O 	c #D5FAD2",
"P 	c #AAEAAA",
"Q 	c #8CE28C",
"R 	c #70DB70",
"S 	c #53D453",
"T 	c #3BD13A",
"U 	c #2DD42C",
"V 	c #1CB72C",
"W 	c #0D9830",
"X 	c #078931",
"Y 	c #068D2F",
"Z 	c #06A527",
"` 	c #04CF14",
" .	c #00FC02",
"..	c #00C914",
"+.	c #1A8347",
"@.	c #5ABA6B",
"#.	c #4FBA60",
"$.	c #36AA4A",
"%.	c #299E42",
"&.	c #8FDF92",
"*.	c #81DE81",
"=.	c #65D665",
"-.	c #47D047",
";.	c #33D232",
">.	c #27CE2A",
",.	c #0D8F30",
"'.	c #005A2F",
").	c #005F33",
"!.	c #008A2C",
"~.	c #00D210",
"{.	c #009629",
"].	c #369C56",
"^.	c #81E87D",
"/.	c #66DE63",
"(.	c #50D94D",
"_.	c #3BD538",
":.	c #2CD52B",
"<.	c #2DDD2D",
"[.	c #34E034",
"}.	c #2FDB2F",
"|.	c #29D728",
"1.	c #25D228",
"2.	c #098033",
"3.	c #00502E",
"4.	c #006536",
"5.	c #00A820",
"6.	c #00F802",
"7.	c #00D510",
"8.	c #005D31",
"9.	c #1D8945",
"0.	c #60D860",
"a.	c #4AD34A",
"b.	c #36CF36",
"c.	c #2BD42B",
"d.	c #22DC22",
"e.	c #19E419",
"f.	c #0FED0F",
"g.	c #08F608",
"h.	c #05FE03",
"i.	c #05E80B",
"j.	c #009E21",
"k.	c #006832",
"l.	c #005734",
"m.	c #009029",
"n.	c #00EF05",
"o.	c #00832D",
"p.	c #057238",
"q.	c #40C646",
"r.	c #38D137",
"s.	c #1BE41B",
"t.	c #13ED13",
"u.	c #0AF50A",
"v.	c #02FD02",
"w.	c #00DF0C",
"x.	c #008730",
"y.	c #004F30",
"z.	c #00852C",
"A.	c #00F105",
"B.	c #00B41F",
"C.	c #005E32",
"D.	c #1DA434",
"E.	c #2EDA2B",
"F.	c #00A426",
"G.	c #008C27",
"H.	c #00B91B",
"I.	c #098234",
"J.	c #23DB23",
"K.	c #1CE61B",
"L.	c #00C019",
"M.	c #006131",
"N.	c #006233",
"O.	c #006E2B",
"P.	c #00622F",
"Q.	c #006535",
"R.	c #12BD23",
"S.	c #14F511",
"T.	c #00EE07",
"U.	c #00A424",
"V.	c #00612F",
"W.	c #3A8D63",
"X.	c #8ABBA3",
"Y.	c #B3D1C2",
"Z.	c #468F6D",
"`.	c #005E2A",
" +	c #038230",
".+	c #0AEF0C",
"++	c #03FF02",
"@+	c #00F703",
"#+	c #007931",
"$+	c #006230",
"%+	c #509A75",
"&+	c #BBD6C9",
"*+	c #FEFEFF",
"=+	c #FFFFFF",
"-+	c #E6F2EB",
";+	c #1F7C4D",
">+	c #005D35",
",+	c #009624",
"'+	c #00FC01",
")+	c #00ED07",
"!+	c #00BC1A",
"~+	c #00812F",
"{+	c #004E2E",
"]+	c #378C60",
"^+	c #B5D5C3",
"/+	c #FAFFFA",
"(+	c #FBFFF9",
"_+	c #ECFCEB",
":+	c #E1F8E1",
"<+	c #D8F6D8",
"[+	c #DBFCD8",
"}+	c #7BBE8F",
"|+	c #009022",
"1+	c #009823",
"2+	c #007030",
"3+	c #00492B",
"4+	c #046734",
"5+	c #65AE81",
"6+	c #D0F3D1",
"7+	c #D8FBD6",
"8+	c #C3F2C3",
"9+	c #B7EEB7",
"0+	c #AEECAE",
"a+	c #A5EAA5",
"b+	c #9CE79C",
"c+	c #94E694",
"d+	c #89E189",
"e+	c #198446",
"f+	c #31895D",
"g+	c #116C44",
"h+	c #00502A",
"i+	c #036230",
"j+	c #62B878",
"k+	c #AEF1AC",
"l+	c #9DE99C",
"m+	c #8FE38F",
"n+	c #86E186",
"o+	c #7CDE7C",
"p+	c #73DC73",
"q+	c #6AD96A",
"r+	c #61D761",
"s+	c #57D457",
"t+	c #53D951",
"u+	c #2CA941",
"v+	c #005F31",
"w+	c #549F7A",
"x+	c #B0D0C1",
"y+	c #0B6A38",
"z+	c #0D773D",
"A+	c #6EDB6F",
"B+	c #6BDF67",
"C+	c #5DD65D",
"D+	c #55D355",
"E+	c #4BD24B",
"F+	c #43D143",
"G+	c #3BD13B",
"H+	c #34D234",
"I+	c #2DD42D",
"J+	c #27D827",
"K+	c #22DF21",
"L+	c #1BDB1E",
"M+	c #027A34",
"N+	c #167646",
"O+	c #EDFBEE",
"P+	c #9FCDAF",
"Q+	c #0A6E39",
"R+	c #168C3B",
"S+	c #2BC034",
"T+	c #28D828",
"U+	c #21DD21",
"V+	c #1EE01E",
"W+	c #1AE41A",
"X+	c #15E915",
"Y+	c #10EE10",
"Z+	c #0CF30C",
"`+	c #08F808",
" @	c #05FB04",
".@	c #03FE02",
"+@	c #01A323",
"@@	c #00592A",
"#@	c #88C79A",
"$@	c #DBFFD5",
"%@	c #88CB97",
"&@	c #157942",
"*@	c #006732",
"=@	c #1FB431",
"-@	c #24EC22",
";@	c #0CF40C",
">@	c #00C515",
",@	c #005A33",
"'@	c #309358",
")@	c #A4ECA3",
"!@	c #A3EDA0",
"~@	c #7DD584",
"{@	c #288E4B",
"]@	c #006232",
"^@	c #0F8535",
"/@	c #36C739",
"(@	c #35D334",
"_@	c #29D729",
":@	c #0FF10F",
"<@	c #05FB05",
"[@	c #01FE01",
"}@	c #00FE00",
"|@	c #00CB13",
"1@	c #006135",
"2@	c #016432",
"3@	c #5ABF68",
"4@	c #7AE377",
"5@	c #71DF6F",
"6@	c #66DB65",
"7@	c #39B04A",
"8@	c #11823A",
"9@	c #026633",
"0@	c #00522D",
"a@	c #036E34",
"b@	c #129E2E",
"c@	c #25D826",
"d@	c #22E221",
"e@	c #1DE41D",
"f@	c #19E919",
"g@	c #15ED15",
"h@	c #11F210",
"i@	c #039626",
"j@	c #008F2A",
"k@	c #00A323",
"l@	c #00A522",
"m@	c #008530",
"n@	c #00532D",
"o@	c #0F7F3D",
"p@	c #4BCE4E",
"q@	c #49D547",
"r@	c #41D040",
"s@	c #3ED63B",
"t@	c #33D133",
"u@	c #23BF2E",
"v@	c #17AF2C",
"w@	c #12AE2B",
"x@	c #11B826",
"y@	c #17D71E",
"z@	c #18EF15",
"A@	c #12F211",
"B@	c #05FC05",
"C@	c #00B919",
"D@	c #005C35",
"E@	c #0F8C35",
"F@	c #2AD52A",
"G@	c #27DE25",
"H@	c #21DE22",
"I@	c #1EE41D",
"J@	c #1BEC19",
"K@	c #17F314",
"L@	c #12F90F",
"M@	c #0DFD0A",
"N@	c #08FD06",
"O@	c #03FD03",
"P@	c #00CB12",
"Q@	c #006C37",
"R@	c #00562F",
"S@	c #07912F",
"T@	c #12E316",
"U@	c #0DFC0A",
"V@	c #09FA09",
"W@	c #01FF01",
"X@	c #00BE18",
"Y@	c #006D37",
"Z@	c #008030",
"`@	c #00C814",
" #	c #00FA02",
".#	c #00DD0C",
"+#	c #009827",
"@#	c #006437",
"##	c #00852E",
"$#	c #00B11E",
"%#	c #00D111",
"&#	c #00E40A",
"*#	c #00EF06",
"=#	c #00E908",
"-#	c #00D80E",
";#	c #00BD18",
">#	c #009528",
",#	c #006D35",
"'#	c #004F2E",
")#	c #00492C",
"!#	c #006032",
"~#	c #006A32",
"{#	c #006D31",
"]#	c #006B31",
"^#	c #006533",
"/#	c #005631",
"                                                                ",
"                                                                ",
"                      . + @ # $ % & * =                         ",
"                  - ; > , ' ) ! ~ { ] ^ / (                     ",
"                _ : < [ } | 1 2 3 4 5 6 7 8 9                   ",
"              0 a b c d e f g h i j k l m n o p                 ",
"            q r s t u v w x y z A B C D E F G H I               ",
"    J K L M N O P Q R S T U V W X Y Z `  .G G G ..(             ",
"  +.@.#.$.%.&.| *.=.-.;.>.,.'.        ).!.~.G G G {.            ",
"  ].^./.(._.:.<.[.}.|.1.2.3.              4.5.6.G 7.8.          ",
"  9.0.a.b.c.d.e.f.g.h.i.j.k.                l.m.n.G o.          ",
"  p.q.r.c.A s.t.u.v.G G G w.x.                y.z.A.B.          ",
"  C.D.E.A s.t.u.v.G G G G G F.                    G.H.          ",
"    I.J.K.t.u.v.G G G G G L.M.                    N.O.P.        ",
"    Q.R.S.u.v.G G G G T.U.=                 V.W.X.Y.Z.`.        ",
"       +.+++G G G @+L.#+                $+%+&+*+=+=+-+;+        ",
"      >+,+'+G )+!+~+{+                ]+^+/+(+_+:+<+[+}+V.      ",
"        N.|+1+2+3+                4+5+6+7+8+9+0+a+b+c+d+e+      ",
"        f+g+h+                  i+j+k+l+m+n+o+p+q+r+s+t+u+v+    ",
"        w+x+y+                  z+A+B+C+D+E+F+G+H+I+J+K+L+M+    ",
"        N+O+P+Q+                L R+S+T+U+V+W+X+Y+Z+`+ @.@+@    ",
"        @@#@$@%@&@                  *@=@-@;@v.G G G G G G >@,@  ",
"          '@)@!@~@{@]@              ^@/@(@_@s.:@<@[@}@G G |@1@  ",
"          2@3@4@5@6@7@8@9@0@    a@b@c@d@e@f@g@h@u.i@j@k@l@m@n@  ",
"            o@p@q@r@s@t@u@v@w@x@y@z@A@;@`+B@F G C@D@            ",
"              E@F@G@H@I@J@K@L@M@N@O@[@G G G G P@Q@              ",
"              R@S@T@U@V@B@v.W@G G G G G G G X@Y@                ",
"                  Z@`@ #G G G G G G G G .#+#@#                  ",
"                    ( ##$#%#&#*#=#-#;#>#,#'#                    ",
"                        )#!#~#{#]#^#/#                          ",
"                                                                ",
"                                                                "};
